<?xml version="1.0" standalone="no"?>
<!DOCTYPE svg PUBLIC "-//W3C//DTD SVG 20010904//EN"
 "http://www.w3.org/TR/2001/REC-SVG-20010904/DTD/svg10.dtd">
<svg version="1.0" xmlns="http://www.w3.org/2000/svg"
 width="512.000000pt" height="512.000000pt" viewBox="0 0 512.000000 512.000000"
 preserveAspectRatio="xMidYMid meet">
<metadata>
Created by potrace 1.11, written by Peter Selinger 2001-2013
</metadata>
<g transform="translate(0.000000,512.000000) scale(0.100000,-0.100000)"
fill="#000000" stroke="none">
<path d="M2355 4550 c-581 -61 -1128 -388 -1448 -867 -84 -126 -172 -288 -192
-353 -4 -14 -11 -29 -15 -35 -7 -9 -67 -188 -75 -225 -49 -215 -59 -301 -59
-505 -1 -252 24 -414 99 -639 169 -512 549 -941 1035 -1169 82 -39 118 -55
140 -62 3 -1 19 -7 35 -14 62 -26 241 -74 321 -87 20 -3 46 -8 58 -10 91 -19
396 -25 531 -11 421 44 854 249 1169 555 286 277 507 686 571 1057 2 17 7 41
10 55 20 97 27 395 12 540 -4 41 -18 127 -31 190 -125 597 -520 1108 -1066
1378 -129 64 -148 72 -275 113 -105 35 -227 64 -305 74 -30 4 -66 10 -80 12
-47 8 -365 10 -435 3z"/>
</g>
</svg>
